HIERARCHY
ROOT Hips
{
	OFFSET 173.408295 91.952423 -518.280273
	CHANNELS 6 Xposition Yposition Zposition Zrotation Yrotation Xrotation 
	JOINT LeftUpLeg
	{
		OFFSET 0.103459 1.857827 10.548504
		CHANNELS 3 Zrotation Yrotation Xrotation
		JOINT LeftLeg
		{
			OFFSET 43.500008 0.000000 0.000004
			CHANNELS 3 Zrotation Yrotation Xrotation
			JOINT LeftFoot
			{
				OFFSET 42.372192 0.000011 0.000000
				CHANNELS 3 Zrotation Yrotation Xrotation
				JOINT LeftToe
				{
					OFFSET 17.299973 -0.000013 -0.000010
					CHANNELS 3 Zrotation Yrotation Xrotation
					End Site
					{
						OFFSET 0.000000 0.000000 0.000000
					}
				}
			}
		}
	}
	JOINT RightUpLeg
	{
		OFFSET 0.103454 1.857830 -10.548500
		CHANNELS 3 Zrotation Yrotation Xrotation
		JOINT RightLeg
		{
			OFFSET 43.500038 -0.000038 0.000004
			CHANNELS 3 Zrotation Yrotation Xrotation
			JOINT RightFoot
			{
				OFFSET 42.372253 0.000019 0.000024
				CHANNELS 3 Zrotation Yrotation Xrotation
				JOINT RightToe
				{
					OFFSET 17.299988 -0.000007 0.000004
					CHANNELS 3 Zrotation Yrotation Xrotation
					End Site
					{
						OFFSET 0.000000 0.000000 0.000000
					}
				}
			}
		}
	}
	JOINT Spine
	{
		OFFSET 6.901963 -2.603744 0.000004
		CHANNELS 3 Zrotation Yrotation Xrotation
		JOINT Spine1
		{
			OFFSET 12.588104 0.000008 -0.000010
			CHANNELS 3 Zrotation Yrotation Xrotation
			JOINT Spine2
			{
				OFFSET 12.343202 -0.000005 0.000010
				CHANNELS 3 Zrotation Yrotation Xrotation
				JOINT Neck
				{
					OFFSET 25.832897 0.000000 0.000001
					CHANNELS 3 Zrotation Yrotation Xrotation
					JOINT Head
					{
						OFFSET 11.766611 -0.000006 -0.000000
						CHANNELS 3 Zrotation Yrotation Xrotation
						End Site
						{
							OFFSET 0.000000 0.000000 0.000000
						}
					}
				}
				JOINT LeftShoulder
				{
					OFFSET 19.745899 -1.480366 6.000108
					CHANNELS 3 Zrotation Yrotation Xrotation
					JOINT LeftArm
					{
						OFFSET 11.284111 -0.000018 -0.000015
						CHANNELS 3 Zrotation Yrotation Xrotation
						JOINT LeftForeArm
						{
							OFFSET 33.000050 -0.000005 0.000028
							CHANNELS 3 Zrotation Yrotation Xrotation
							JOINT LeftHand
							{
								OFFSET 25.200012 0.000000 0.000002
								CHANNELS 3 Zrotation Yrotation Xrotation
								End Site
								{
									OFFSET 0.000000 0.000000 0.000000
								}
							}
						}
					}
				}
				JOINT RightShoulder
				{
					OFFSET 19.746111 -1.480335 -6.000074
					CHANNELS 3 Zrotation Yrotation Xrotation
					JOINT RightArm
					{
						OFFSET 11.284151 0.000036 0.000001
						CHANNELS 3 Zrotation Yrotation Xrotation
						JOINT RightForeArm
						{
							OFFSET 33.000092 -0.000035 0.000022
							CHANNELS 3 Zrotation Yrotation Xrotation
							JOINT RightHand
							{
								OFFSET 25.199768 0.000178 0.000417
								CHANNELS 3 Zrotation Yrotation Xrotation
								End Site
								{
									OFFSET 0.000000 0.000000 0.000000
								}
							}
						}
					}
				}
			}
		}
	}
}
MOTION
Frames: 14
Frame Time: 0.033333
0.018932 0.591968 -0.023248 -2.875515 1.800590 122.887802 2.995724 -20.860067 7.433546 -17.446388 31.599148 4.407618 5.130243 -10.728646 8.268331 6.787145 2.127645 3.703885 -9.327094 -26.837893 -5.148440 6.825549 37.396206 -6.962507 2.087743 -12.523164 3.979846 -1.691925 4.272250 -13.284313 1.062100 39.776058 -1.795288 0.405051 -2.537209 -1.657780 -0.049726 3.587137 -0.262038 -1.387654 -10.507649 -6.034431 1.747261 -3.007830 -3.942361 -20.126732 6.034211 -11.481157 -44.247952 3.305614 -2.465439 5.653969 0.014010 -22.619595 12.517888 -19.289766 -4.029921 14.984514 1.016187 9.349447 49.098927 6.152431 4.895231 -14.056486 1.499924 30.737932 17.020988 -20.425072 8.265985 
0.017864 0.593616 -0.019458 -2.569383 1.403722 122.107933 2.528846 -17.797981 7.195831 -13.902437 27.284912 -0.694919 2.883381 -11.140866 7.846288 7.558680 2.794873 -6.462530 -7.561014 -24.840958 -4.913890 6.139409 33.557926 -5.081793 2.066048 -12.032975 3.676312 1.343362 6.979550 -9.227528 0.214976 36.210491 -1.320889 0.426673 -2.488070 -1.333542 -0.142409 4.473706 -0.472073 -1.691402 -9.284146 -5.172353 1.704998 -3.923880 -2.532008 -19.498932 6.866326 -9.976137 -41.944874 2.472140 -0.318059 5.297473 1.096182 -24.008919 5.072055 -17.145935 -4.319484 13.984912 3.363760 8.092250 46.942425 4.066807 3.614380 -14.205422 5.143318 34.756847 22.373669 -17.260656 9.230807 
0.016759 0.594846 -0.016438 -2.278286 1.053511 121.788414 2.528846 -17.797981 7.195831 -13.902437 27.284912 -0.694919 2.883381 -11.140866 7.846288 7.558680 2.794873 -6.462530 -7.561014 -24.840958 -4.913890 6.139409 33.557926 -5.081793 2.066048 -12.032975 3.676312 1.343362 6.979550 -9.227528 0.214976 36.210491 -1.320889 0.426673 -2.488070 -1.333542 -0.142409 4.473706 -0.472073 -1.691402 -9.284146 -5.172353 1.704998 -3.923880 -2.532008 -19.498932 6.866326 -9.976137 -41.944874 2.472140 -0.318059 5.297473 1.096182 -24.008919 5.072055 -17.145935 -4.319484 13.984912 3.363760 8.092250 46.942425 4.066807 3.614380 -14.205422 5.143318 34.756847 22.373669 -17.260656 9.230807 
0.015768 0.596069 -0.013727 -2.003873 0.776226 121.584358 2.460694 -16.297022 6.860089 -12.122824 25.126148 -1.740581 2.151952 -10.453500 8.668811 5.140864 -1.303419 -6.940165 -6.570884 -23.618942 -5.192020 6.081992 31.512894 -3.952058 2.331162 -13.656943 3.030206 3.528076 9.900383 -9.856750 0.149373 33.814453 -1.292007 0.799088 -2.219298 -1.563206 0.260518 5.124736 -1.055249 -2.400841 -9.963675 -4.441979 1.292199 -4.574001 -1.742387 -19.368408 7.763056 -8.200122 -40.492207 2.337292 1.659411 4.145539 1.941260 -26.700119 7.878806 -12.218330 -4.148371 13.929734 5.402946 7.756982 43.344917 3.646201 2.410421 -11.876751 5.572505 35.893684 23.171284 -16.227781 10.691973 
0.015130 0.597190 -0.010987 -1.729147 0.427007 120.965279 2.460694 -16.297022 6.860089 -12.122824 25.126148 -1.740581 2.151952 -10.453500 8.668811 5.140864 -1.303419 -6.940165 -6.570884 -23.618942 -5.192020 6.081992 31.512894 -3.952058 2.331162 -13.656943 3.030206 3.528076 9.900383 -9.856750 0.149373 33.814453 -1.292007 0.799088 -2.219298 -1.563206 0.260518 5.124736 -1.055249 -2.400841 -9.963675 -4.441979 1.292199 -4.574001 -1.742387 -19.368408 7.763056 -8.200122 -40.492207 2.337292 1.659411 4.145539 1.941260 -26.700119 7.878806 -12.218330 -4.148371 13.929734 5.402946 7.756982 43.344917 3.646201 2.410421 -11.876751 5.572505 35.893684 23.171284 -16.227781 10.691973 
0.015077 0.597634 -0.008944 -1.460740 0.107084 119.950768 2.745738 -14.902953 6.690539 -10.843185 23.192968 -1.500020 1.375076 -10.059829 9.505008 3.412529 -5.447001 -3.664849 -5.122437 -22.889856 -4.610614 6.240007 28.816174 -2.869228 -0.455296 -13.880762 0.808064 -0.752943 9.985431 -11.168768 0.324887 31.411325 -1.085640 0.969611 -0.895111 -1.465689 0.180113 5.785428 -0.937670 -3.057825 -9.813615 -3.570210 1.044376 -5.472049 -1.530550 -19.007658 8.279739 -6.824704 -39.594727 1.814465 3.163363 3.189827 2.303747 -27.779327 4.319985 -14.296918 -4.934739 13.297041 6.723799 7.663165 41.575203 3.776345 2.062155 -10.442676 6.387235 35.060154 22.205002 -16.450802 11.578224 
0.015401 0.597858 -0.007635 -1.474583 -0.371433 118.993881 2.745738 -14.902953 6.690539 -10.843185 23.192968 -1.500020 1.375076 -10.059829 9.505008 3.412529 -5.447001 -3.664849 -5.122437 -22.889856 -4.610614 6.240007 28.816174 -2.869228 -0.455296 -13.880762 0.808064 -0.752943 9.985431 -11.168768 0.324887 31.411325 -1.085640 0.969611 -0.895111 -1.465689 0.180113 5.785428 -0.937670 -3.057825 -9.813615 -3.570210 1.044376 -5.472049 -1.530550 -19.007658 8.279739 -6.824704 -39.594727 1.814465 3.163363 3.189827 2.303747 -27.779327 4.319985 -14.296918 -4.934739 13.297041 6.723799 7.663165 41.575203 3.776345 2.062155 -10.442676 6.387235 35.060154 22.205002 -16.450802 11.578224 
0.016147 0.597561 -0.007467 -1.463898 -0.769182 118.268570 2.968784 -14.868768 5.965806 -9.850165 22.293167 -1.434135 0.800636 -10.030339 11.383519 3.981226 -5.645640 -5.416675 -3.815680 -23.974989 -3.809674 6.368435 28.083691 -2.524101 -1.920812 -13.440382 -0.221426 -2.836803 12.595024 -7.858486 0.679861 30.055239 -1.186213 0.996212 -0.271540 -1.186195 0.064094 6.281006 -0.889687 -3.505234 -10.072164 -3.218038 0.981830 -6.282228 -1.270260 -18.781921 8.543506 -5.406641 -39.247921 1.796166 5.072637 2.702316 2.911951 -27.541342 4.083076 -11.495387 -5.841556 12.828008 7.295548 7.054449 40.423500 4.015697 0.719584 -10.131916 8.164150 35.207924 21.485897 -14.767674 12.650954 
0.017067 0.596945 -0.008189 -1.755338 -1.237223 117.685425 2.968784 -14.868768 5.965806 -9.850165 22.293167 -1.434135 0.800636 -10.030339 11.383519 3.981226 -5.645640 -5.416675 -3.815680 -23.974989 -3.809674 6.368435 28.083691 -2.524101 -1.920812 -13.440382 -0.221426 -2.836803 12.595024 -7.858486 0.679861 30.055239 -1.186213 0.996212 -0.271540 -1.186195 0.064094 6.281006 -0.889687 -3.505234 -10.072164 -3.218038 0.981830 -6.282228 -1.270260 -18.781921 8.543506 -5.406641 -39.247921 1.796166 5.072637 2.702316 2.911951 -27.541342 4.083076 -11.495387 -5.841556 12.828008 7.295548 7.054449 40.423500 4.015697 0.719584 -10.131916 8.164150 35.207924 21.485897 -14.767674 12.650954 
0.018346 0.596251 -0.009397 -2.019050 -1.617713 117.262199 3.200821 -15.958755 5.135885 -9.617976 22.213879 -0.671497 1.888727 -9.729871 12.668383 5.718214 -5.729139 -2.670856 -3.230094 -26.060097 -3.201771 6.479014 28.686512 -3.188127 -2.076517 -12.734741 -1.171263 -5.343944 14.637132 -9.671422 0.925887 29.503403 -1.447193 1.178100 0.201694 -1.224393 0.148446 6.401083 -0.851544 -3.398365 -10.814335 -2.948453 0.919918 -6.369038 -1.345941 -19.021910 8.812492 -3.708147 -39.939480 1.820080 6.197939 2.223403 2.020005 -25.994160 8.002789 -9.675621 -7.252853 12.798427 7.160466 5.762878 40.680534 5.556640 -0.300286 -9.469427 8.148263 33.660385 17.701950 -15.842374 13.764845 
0.020053 0.595536 -0.009887 -2.540681 -2.175739 116.436279 3.200821 -15.958755 5.135885 -9.617976 22.213879 -0.671497 1.888727 -9.729871 12.668383 5.718214 -5.729139 -2.670856 -3.230094 -26.060097 -3.201771 6.479014 28.686512 -3.188127 -2.076517 -12.734741 -1.171263 -5.343944 14.637132 -9.671422 0.925887 29.503403 -1.447193 1.178100 0.201694 -1.224393 0.148446 6.401083 -0.851544 -3.398365 -10.814335 -2.948453 0.919918 -6.369038 -1.345941 -19.021910 8.812492 -3.708147 -39.939480 1.820080 6.197939 2.223403 2.020005 -25.994160 8.002789 -9.675621 -7.252853 12.798427 7.160466 5.762878 40.680534 5.556640 -0.300286 -9.469427 8.148263 33.660385 17.701950 -15.842374 13.764845 
0.021797 0.594718 -0.010806 -3.108956 -2.577527 115.163742 3.853818 -17.681879 3.870471 -10.340907 22.282755 1.293142 2.936902 -9.777491 14.143457 7.088844 -6.865254 2.259580 -2.903330 -28.326513 -3.005599 6.935090 28.923992 -3.549468 -3.386447 -14.633703 -3.067271 -9.881029 16.031979 -11.982512 0.888386 28.796068 -1.053636 0.932945 0.964599 -0.982574 0.015195 6.655767 -0.405077 -3.082076 -11.257275 -2.776493 1.540704 -7.042806 -1.726422 -18.551790 8.893502 -2.646536 -41.491894 1.376310 6.901998 1.401125 2.818014 -23.564283 10.988094 -9.336740 -8.718106 11.832838 6.736120 4.947104 43.182396 7.328727 -1.056767 -8.972473 12.062489 29.681355 10.341737 -15.563675 13.356316 
0.023305 0.594301 -0.012032 -4.194496 -3.144605 113.876938 3.853818 -17.681879 3.870471 -10.340907 22.282755 1.293142 2.936902 -9.777491 14.143457 7.088844 -6.865254 2.259580 -2.903330 -28.326513 -3.005599 6.935090 28.923992 -3.549468 -3.386447 -14.633703 -3.067271 -9.881029 16.031979 -11.982512 0.888386 28.796068 -1.053636 0.932945 0.964599 -0.982574 0.015195 6.655767 -0.405077 -3.082076 -11.257275 -2.776493 1.540704 -7.042806 -1.726422 -18.551790 8.893502 -2.646536 -41.491894 1.376310 6.901998 1.401125 2.818014 -23.564283 10.988094 -9.336740 -8.718106 11.832838 6.736120 4.947104 43.182396 7.328727 -1.056767 -8.972473 12.062489 29.681355 10.341737 -15.563675 13.356316 
0.024819 0.594511 -0.013802 -5.292711 -3.629544 112.663391 4.564600 -20.835552 2.478305 -11.412021 23.096716 3.676209 2.533752 -10.585422 15.994517 7.489866 -8.621995 3.197552 -3.189327 -31.382778 -2.694950 8.295440 30.819416 -4.494214 -2.548723 -18.981640 -3.342818 -13.114615 16.935362 -10.903412 0.447490 27.872339 -0.456012 0.909333 1.199230 -0.648308 0.065313 6.548004 -0.480377 -3.396283 -12.598977 -3.254204 1.883262 -7.591943 -2.453033 -19.072699 9.136691 -0.881487 -44.016373 2.252551 7.272706 0.745610 3.655334 -19.481491 18.836123 -4.796408 -10.545213 12.425937 5.950046 3.756806 45.275257 9.214718 -2.506210 -8.320091 14.367282 25.800734 5.201922 -16.554855 13.899816 
